<svg viewBox="0 0 134.9966 46.47" x="0" y="0" fill="none" xmlns="http://www.w3.org/2000/svg"><defs><clipPath id="clip20_23002_53114" xmlns="http://www.w3.org/2000/svg">
<rect width="134.997" height="46.47" fill="white" transform="translate(0.00140000000000029, 0.00140000000000029)"/>
</clipPath></defs><g id="logo.svg" clip-path="url(#clip20_23002_53114)" xmlns="http://www.w3.org/2000/svg">
<g id="Group">
<path id="Vector_133" d="M37.1316,28.6908c3.1675,-1.0904 5.9456,-2.7521 8.1005,-5.5042c0.1298,0.5712 0.1298,1.0645 0.1039,1.5578c-0.2856,6.4129 -2.9598,11.6055 -7.9707,15.5779c-0.0779,0.0519 -0.1558,0.1038 -0.2337,0.1558c-0.1557,0.1038 -0.3634,0.1557 -0.5192,0c-0.1558,-0.1818 -0.0519,-0.3376 0.0779,-0.4933c0.6231,-0.753 1.2462,-1.5059 1.7655,-2.3367c0.4933,-0.8308 0.9346,-1.6617 1.0385,-2.6483c0.0779,-0.9346 -0.2077,-1.4539 -1.2722,-1.2462c-1.7655,0.3635 -3.5829,0.3116 -5.3744,0.0519c-6.335,-0.9346 -11.7353,-3.9204 -16.7202,-7.7889c-0.9607,-0.727 -1.8953,-1.5059 -2.7781,-2.3367c-0.1298,-0.1298 -0.3375,-0.2077 -0.2596,-0.4413c0.1039,-0.2337 0.3116,-0.2597 0.5712,-0.2597c1.3241,0.0519 2.6223,0.0779 3.9464,0.1298c2.5444,0.052 5.1147,-0.0259 7.6591,-0.2856c1.6876,-0.1557 3.4012,-0.3634 5.0368,-0.7529c2.7521,-0.6231 5.4523,-1.4799 7.5293,-3.5829c1.6876,-1.7136 2.0252,-3.8166 1.4799,-6.1013c-0.2336,-0.9347 -0.6231,-1.8174 -1.0904,-2.6483c-0.1039,-0.1817 -0.2077,-0.3894 -0.026,-0.5452c0.1818,-0.1817 0.3895,-0.0519 0.5453,0.0779c1.6616,1.6876 3.2973,3.3492 4.1281,5.66c1.1943,3.2713 0.7789,6.335 -1.1684,9.2169c-1.0904,1.6097 -2.4924,2.9338 -4.0242,4.1281c-0.1818,0.1298 -0.3635,0.2856 -0.5453,0.4154z" fill="#FE760A"/>
<path id="Vector_134" d="M5.2991,23.2905c-0.2077,0.1818 -0.2856,0.4674 -0.6231,0.2597c-0.1558,-0.0779 -0.4154,0.1817 -0.5193,0.3894c-0.2596,0.4933 -0.4414,0.5452 -0.9347,0.1558c-0.2336,0.727 -0.6231,1.402 -0.3115,2.1809c0.2077,0.5193 -0.1039,0.9866 -0.0779,1.5059c0.0259,0.1298 -0.1298,0.2596 -0.2596,0.2596c-0.8568,0.0259 -0.7011,0.727 -0.8309,1.2462c-0.0519,0.1818 0,0.3895 0,0.727c-0.3375,-0.5193 -0.4154,-1.0385 -0.5192,-1.5059c-2.7002,-11.2939 3.1934,-22.4061 14.046,-26.5083c2.0251,-0.7529 4.1281,-1.2203 6.2831,-1.3241c1.5318,-0.0779 3.0377,-0.052 4.5435,0.2856c0.5453,0.1038 0.9866,0.3634 1.2982,0.8308c-0.8568,0.2077 -1.7655,0.2077 -2.5704,0.6491c-0.2336,0.1298 -0.4673,0.1038 -0.7529,0.0259c-0.5452,-0.1817 -1.5059,0.2597 -1.7914,0.7789c-0.2078,0.4154 -0.4155,0.8049 -1.0386,0.5972c-0.3115,-0.1039 -0.6231,0.1817 -0.9087,0.3375c-0.2077,0.1038 -0.3894,0.1298 -0.5712,0.1298c-1.1423,-0.1039 -2.3886,0.675 -2.778,1.7395c-0.026,0.0779 -0.0779,0.2077 -0.1298,0.2337c-0.5193,0.0519 -0.6751,0.5193 -0.9866,0.7789c-0.727,0.6491 -0.727,0.8308 0.2336,1.2462c-0.1038,0.2597 -0.3635,0.2856 -0.5452,0.3895c-0.4154,0.2077 -0.3894,0.3375 -0.0519,0.649c0.3894,0.3895 0.9347,0.3895 1.402,0.5972c0.8048,0.3375 1.2462,1.1424 1.0385,1.9732c-0.0259,0.1298 -0.1298,0.2856 -0.0259,0.3635c0.4413,0.4154 0.1298,0.701 -0.1039,1.0385c-0.1039,0.1298 -0.1558,0.2596 -0.0779,0.4154c0.2596,0.5452 -0.1038,0.8308 -0.4933,1.0905c-0.701,0.4673 -1.1683,1.0385 -1.2981,1.8953c-0.0779,0.4673 -0.4674,0.7269 -0.8568,0.7269c-0.5453,0.026 -1.0905,0.052 -1.6097,0.2597c-0.1558,0.0519 -0.3116,0.1038 -0.4933,0.0259c-0.5972,-0.2856 -1.0126,0.2077 -1.5059,0.3635c-0.026,0 -0.0519,0.026 -0.0519,0.026c-0.0779,1.1683 -0.8049,0.2077 -1.1943,0.3635c-0.1298,0.0519 -0.701,-0.3116 -0.2597,0.2856c0.026,0.0259 0,0.1038 -0.0259,0.1557c-0.2597,0.4414 -0.4414,0.8309 0.3115,0.9607c0.0779,0.0259 0.2337,0.0779 0.1818,0.2336c-0.026,0.052 -0.1558,0.1558 -0.2077,0.1299c-0.7789,-0.2078 -0.6751,0.4933 -0.7789,0.8308c-0.1818,0.5452 -0.3375,0.6491 -0.9087,0.5712c-0.6231,-0.0779 -1.2463,-0.1299 -1.8434,-0.3116c-0.2596,-0.0779 -0.3116,0.0519 -0.2596,0.2596c0.0778,0.3376 0.0259,0.6491 -0.1039,0.9866c-0.1039,0.2597 -0.1039,0.5193 0.026,0.7789c0.1557,0.2856 0.1038,0.4414 -0.2856,0.3116c-0.3116,-0.0779 -0.753,0.2077 -0.7789,-0.3895zM5.5068,16.3324c-0.2856,-0.0519 -0.4414,0.1039 -0.5193,0.3635c-0.2596,0.8049 -0.0259,1.6097 -0.1558,2.4146c0,0.0779 0.026,0.1558 0.1039,0.1558c0.3635,0.0519 0.701,0.5192 1.0645,-0.0779c0.2077,-0.3376 0.5452,-0.1818 0.8827,-0.052c0.1298,0.052 0.3116,-0.5971 0.8308,-0.4933c0.3635,0.0779 0.7011,0.2077 1.0386,0.2856c0.1038,0.026 0.2336,0.0779 0.2856,-0.0779c0.0259,-0.0778 0,-0.1557 -0.0779,-0.2336c-0.3895,-0.3895 -0.7789,-0.8049 -1.1684,-1.2203c-0.1817,-0.2077 -0.3634,-0.3375 -0.649,-0.1558c-0.1039,0.0779 -0.2337,0.052 -0.2597,-0.0779c-0.2336,-0.675 -0.7529,-0.8048 -1.376,-0.8308zM5.6885,14.2813c0.1558,0.2077 0.2597,0.3895 0.4674,0.4674c0.1038,0.0259 0.2856,0.0779 0.2856,-0.026c-0.052,-0.3894 -0.026,-0.9087 -0.2597,-1.1424c-0.3635,-0.3894 -0.675,-0.7529 -0.8048,-1.2722c-0.0779,-0.3115 -0.052,-0.8567 -0.3635,-0.8567c-0.3895,0 -0.1818,0.5711 -0.3375,0.8567c-0.1039,0.1818 -0.1039,0.3635 0.2077,0.3376c0.1557,-0.026 0.2596,0.1298 0.2336,0.2336c-0.1038,0.3116 0.1039,0.5712 0.1558,0.8308c0.0519,0.2337 0.1039,0.5453 -0.1298,0.7789c-0.1558,0.1558 -0.2856,0.3895 -0.1039,0.5193c0.1299,0.0779 0.4155,-0.0519 0.4933,-0.3116c0.026,-0.1557 0.0779,-0.2336 0.1558,-0.4154z" fill="#1669B3"/>
<path id="Vector_135" d="M24.7972,42.5812c0.052,-0.1558 0.3116,-0.2337 0.3116,-0.5193c-0.3635,0.0779 -0.5972,-0.1039 -0.5452,-0.4414c0.0519,-0.3635 -0.1039,-0.5452 -0.4414,-0.6491c-0.2596,-0.0778 -0.3635,-0.2596 -0.2337,-0.4933c0.1558,-0.3375 0.026,-0.7269 0.3376,-1.0385c0.1817,-0.1558 0.0259,-0.3894 -0.1299,-0.4673c-0.2077,-0.1298 -0.2856,0.1038 -0.3115,0.2337c-0.0519,0.3634 -0.2337,0.5971 -0.5193,0.8048c-0.0779,0.0779 -0.1817,0.1558 -0.2856,0.1039c-0.5712,-0.3116 -0.9606,0.0259 -1.1683,0.4673c-0.2077,0.4414 -0.727,0.4154 -0.9606,0.8308c-0.1039,0.2077 -0.2337,0.3895 -0.3376,0.727c-0.1817,-0.4414 -0.4933,-0.5712 -0.7789,-0.7789c-0.5971,-0.4673 -0.675,-0.9606 -0.3894,-1.7395c0.0779,-0.2077 -0.0779,-0.3376 -0.1298,-0.5972c-0.3635,0.6231 -0.9087,0.026 -1.3241,0.2856c-0.026,0.026 -0.1299,-0.0519 -0.1299,-0.0519c0.052,-0.4154 -0.3115,-0.8828 0.026,-1.2722c0.2337,-0.2856 0.4154,-0.5193 0.2596,-0.9087c-0.0779,-0.2337 0.026,-0.4674 0.2077,-0.727c-0.2856,-0.0519 -0.5452,-0.0779 -0.675,-0.3635c-0.1039,-0.2077 -0.1298,-0.4154 0.0779,-0.4673c0.4414,-0.1298 0.4154,-0.5712 0.6491,-0.8568c0.0259,-0.0519 0.0779,-0.1038 0.0779,-0.1298c-0.1039,-0.8568 0.0778,-1.3501 0.701,-1.8174c0.0778,0.2077 -0.026,0.3635 -0.0779,0.5192c-0.052,0.1818 -0.026,0.2597 0.1817,0.3116c0.701,0.1558 0.7789,0.8049 0.9866,1.3501c0.0779,0.2077 -0.2337,0.1298 -0.3375,0.2596c0.675,0.4933 1.402,0.5452 1.9472,0.1039c-0.3375,-0.2337 -0.3375,-0.8309 -0.9346,-0.7789c-0.1818,0.0259 -0.1299,-0.2337 0,-0.3376c0.2077,-0.1817 1.4539,-0.1817 1.6876,0c0.2336,0.1818 0.4413,0.3895 -0.1818,0.5453c0.6491,-0.026 1.1164,0.2077 1.6357,0.1298c0.3375,-0.026 0.5712,-0.0779 0.6231,-0.4673c0.0519,-0.3376 0.2596,-0.3376 0.5193,-0.1558c0.4154,0.3115 1.0645,0.2856 1.4799,-0.026c0.5192,-0.4154 1.0385,-0.4933 1.6876,-0.2856c2.4924,0.8049 5.0628,1.2462 7.711,1.1684c0.6491,-0.026 1.2982,-0.052 1.9472,-0.1558c0.4414,-0.0779 0.4155,0.1038 0.3116,0.4154c-0.2337,0.7529 -0.5972,1.428 -1.0385,2.077c-0.4414,0.6232 -0.8828,1.2203 -1.402,1.7915c-0.5712,0.6491 -0.6231,1.2462 -0.1039,1.9472c0.2337,0.3116 0,0.3375 -0.1558,0.4414c-1.4539,1.0126 -3.0376,1.8434 -4.6993,2.4665c-4.7253,1.7395 -9.5285,1.8953 -14.3836,0.4673c-0.2855,-0.0779 -0.649,-0.1038 -0.4154,-0.5712c0.026,-0.0519 0,-0.1557 -0.0259,-0.2077c-0.4933,-0.5192 -0.4154,-1.2462 -0.7789,-1.8174c-0.0779,-0.1298 -0.1818,-0.2856 -0.0779,-0.4154c0.1298,-0.1558 0.2337,0.1298 0.3894,0.0519c0,-0.0259 0.026,-0.0779 0.026,-0.1038c0.026,-0.3635 -0.5971,-0.701 -0.1817,-1.0126c0.2856,-0.2077 0.701,-0.2596 1.0644,-0.6491c-0.0778,0.6232 -0.2855,1.1424 0.1818,1.5838c0.2337,-0.2596 0.5193,-0.4673 0.1558,-0.8568c-0.1558,-0.1558 0.1817,-0.727 0.4413,-0.7789c0.1558,-0.0259 0.1818,0.0779 0.2077,0.1818c0.026,0.1817 -0.0259,0.3634 0.1818,0.5452c0.1038,-0.1558 0.0519,-0.3375 0.0519,-0.4933c0.026,-0.1558 0.0779,-0.2596 0.2337,-0.2337c0.1298,0.026 0.3375,-0.0779 0.3375,0.1558c0,0.3894 0.3635,0.675 0.2337,1.1164c-0.0779,0.2337 0.2077,0.3635 0.3894,0.4673c0.2596,0.1558 0.5712,0.2856 0.8049,0.701c-0.6231,-0.1557 -1.1164,-0.3634 -1.6617,-0.2336c-0.3375,0.0779 -0.4933,0.2077 -0.4154,0.5452c0.026,0.0779 0.1298,0.1558 0.026,0.2596c-0.1298,0.1299 -0.2596,0.3116 -0.0779,0.4154c0.1817,0.1039 0.4154,0.2337 0.675,0.052c0.5453,-0.3635 1.1424,-0.5452 1.7915,-0.2856c0.2077,0.0779 0.4673,-0.026 0.701,0c0.9866,0.1298 1.9992,0.1817 3.0117,0.1038c0.2077,-0.0259 0.4414,-0.0259 0.6491,0.0779c0.2337,0.1298 0.5712,0.1298 0.701,-0.1038c0.2077,-0.2597 -0.2856,-0.1558 -0.3116,-0.4154z" fill="#1669B3"/>
<path id="Vector_136" d="M29.6781,17.4227c-2.6482,0.0779 -5.1926,-2.2848 -5.1666,-5.1667c0.0519,-2.8819 2.2847,-5.1926 5.1407,-5.2186c2.9078,-0.0259 5.2186,2.2588 5.2445,5.1407c0,3.0377 -2.4665,5.3225 -5.2186,5.2446z" fill="#FE760A"/>
<path id="Vector_137" d="M12.5935,35.5191c0.5192,0.4414 0.6491,1.0645 1.1164,1.4799c0.4154,0.3635 0.2596,2.0251 -0.1298,2.4925c-0.0519,0.0519 -0.1039,0.1038 -0.1818,0.1298c-0.2596,0.1039 -0.9346,0.0519 -0.2077,0.5452c0.1558,0.1039 0,0.2597 -0.0779,0.3116c-0.8048,0.5192 -0.7788,1.1943 -0.4413,1.9732c0.0519,0.1558 0.0519,0.3115 0.0779,0.5192c-0.3895,-0.0778 -0.6751,-0.2856 -0.9607,-0.4673c-1.7135,-0.9866 -3.2713,-2.1809 -4.6733,-3.5829c-0.3116,-0.3116 -0.4414,-1.2722 -0.2856,-1.6616c0.1298,-0.3116 0.3115,-0.6232 0.1817,-1.0126c-0.0779,-0.2337 0.0519,-0.2856 0.2337,-0.2077c0.6231,0.2596 1.3501,0.1298 1.8953,0.5712c0.1298,0.1038 0.2337,0.1298 0.3635,-0.026c0.3115,-0.3375 0.6231,-0.2596 0.9866,-0.0259c0.2856,0.1817 0.701,0.5192 0.8827,-0.1558c0.026,-0.052 0.1039,-0.1039 0.1818,-0.1039c0.5192,-0.0519 0.7789,-0.4154 1.0385,-0.7789z" fill="#1669B3"/>
<path id="Vector_138" d="M6.8038,24.9001c-0.2337,0.0779 -0.4414,0.1299 -0.6232,0.2337c-0.2077,0.1039 -0.4154,0.1039 -0.6231,0.0779c-0.0779,0.1817 0.0779,0.1817 0.1558,0.2596c0.1818,0.1558 0.0519,0.3895 0.0519,0.4933c0.0779,0.4414 -0.7269,0.5972 -0.3375,1.1164c0.2077,0.2597 -0.1038,0.4414 -0.1817,0.6491c0.2077,0.1039 0.4154,0.1818 0.701,0.3116c-0.5712,0.1817 -0.6491,0.7269 -0.9347,1.0904c-0.4933,-0.2336 -0.1038,-0.8827 -0.5712,-1.1164c-0.0259,-0.026 -0.0259,-0.1817 0.026,-0.2596c0.3635,-0.6231 0.2077,-1.1684 -0.1298,-1.7396c-0.052,-0.1038 -0.1039,-0.2077 -0.0779,-0.3115c0.0519,-0.2337 -0.4674,-0.5452 0.1298,-0.7529c0.0779,-0.026 0.1558,-0.5712 0.4673,-0.753l0.026,-0.0519c0.3635,0.026 0.8308,-0.0779 1.0645,0.1039c0.4154,0.3375 0.3375,0.4154 0.8568,0.649z" fill="#1669B3"/>
<path id="Vector_139" d="M8.1306,34.4028c-0.0519,0.052 -0.0779,0.1299 0,0.1818c0.1039,0.0779 0.4933,0.1038 0.1299,0.3115c-0.1039,0.0779 -0.4933,0.3376 -0.6232,-0.1817c-0.0778,-0.3375 -0.3634,-0.5452 -0.8048,-0.5712c-0.3116,-0.026 -0.7789,-0.1038 -0.7789,-0.675c0,-0.2597 -0.3895,-0.2337 -0.4673,-0.4933c-0.026,-0.1039 -0.1299,-0.2077 -0.0779,-0.3116c0.0519,-0.1298 0.1817,-0.0779 0.2856,-0.0519c0.4933,0.1298 1.0125,0.2856 1.5058,0.4154c0.3895,0.1558 0.8308,0.9087 0.8308,1.376z" fill="#1669B3"/>
<path id="Vector_140" d="M7.5075,26.4321c-0.3115,0.7269 -0.649,1.3501 -1.3241,1.7914c0.026,-0.4933 -0.5712,-0.7789 -0.1038,-1.5058c0.5452,-0.8309 1.0645,0.3115 1.4279,-0.2856z" fill="#1669B3"/>
</g>
<g id="Group_2">
<path id="Vector_141" d="M105.8,25.6789c0,2.4146 0,4.8551 0,7.2956c0,0.4154 -0.103,0.5712 -0.519,0.5193c-0.701,-0.0519 -1.402,0.0519 -2.077,-0.1818c-1.142,-0.4154 -1.765,-1.2202 -1.895,-2.4145c0,-0.1039 0,-0.2337 -0.026,-0.3375c-0.052,-0.1558 -0.078,-0.3895 -0.182,-0.4414c-0.234,-0.1039 -0.285,0.1817 -0.389,0.3115c-1.247,1.5319 -2.752,2.6483 -4.674,3.1675c-1.609,0.4154 -3.245,0.4414 -4.855,0.2597c-2.986,-0.3375 -5.608,-1.5319 -7.6849,-3.7387c-1.6616,-1.7655 -2.7001,-3.8426 -3.3233,-6.1533c-0.701,-2.6742 -0.8567,-5.3743 -0.4154,-8.1005c0.6751,-4.3877 2.5704,-8.0485 6.5946,-10.3073c1.688,-0.9607 3.531,-1.402 5.452,-1.454c2.285,-0.0778 4.544,0.1299 6.725,0.8828c3.453,1.1943 5.738,3.4531 6.62,7.062c0.13,0.5971 0.182,1.1943 0.286,1.8174c0.026,0.2077 0.052,0.4413 -0.26,0.4413c-1.402,-0.0519 -2.804,0.1818 -4.206,-0.1557c-0.805,-0.1818 -1.454,-0.701 -1.817,-1.428c-1.454,-2.83 -4.076,-3.6348 -6.958,-3.3492c-1.532,0.1557 -2.908,0.649 -4.025,1.7395c-1.246,1.1943 -1.817,2.7261 -2.154,4.3878c-0.338,1.7135 -0.364,3.479 -0.208,5.1926c0.182,2.3626 0.805,4.6214 2.674,6.2311c2.674,2.3367 7.4,2.7781 10.1,-0.1298c0.96,-1.0385 1.506,-2.3107 1.869,-3.6348c0.104,-0.3376 -0.078,-0.4154 -0.363,-0.4154c-0.935,0.0259 -1.844,0 -2.779,0c-1.973,0 -3.245,-1.2722 -3.271,-3.2454c0,-0.5193 -0.156,-1.1943 0.078,-1.5059c0.26,-0.3375 0.961,-0.1038 1.48,-0.1038c3.245,0 6.491,0 9.736,-0.026c0.441,0 0.545,0.1298 0.545,0.5452c-0.104,2.4146 -0.078,4.8292 -0.078,7.2697z" fill="#FE760A"/>
<path id="Vector_142" d="M132.023,14.2034c-0.493,0 -1.012,0 -1.505,0c-1.221,0.0259 -2.129,-0.5453 -2.649,-1.6097c-1.038,-2.1809 -2.804,-3.1156 -5.114,-3.2195c-1.325,-0.0779 -2.623,0.026 -3.869,0.5193c-2.155,0.8827 -3.427,2.5444 -4.05,4.6993c-0.831,2.8819 -0.831,5.8158 0,8.7236c1.142,3.9464 4.18,5.634 7.996,5.2446c3.012,-0.3116 4.7,-1.8174 5.479,-4.7772c0.078,-0.3116 0.207,-0.4155 0.519,-0.4155c1.662,0.026 3.297,0.026 4.959,0c0.337,0 0.441,0.0779 0.389,0.4414c-0.623,5.4263 -4.05,8.9833 -9.45,9.8141c-2.493,0.3894 -4.985,0.3635 -7.426,-0.2856c-3.686,-1.0126 -6.283,-3.2973 -7.633,-6.8543c-1.895,-5.0368 -1.947,-10.1516 0.104,-15.1884c1.688,-4.1541 5.011,-6.335 9.347,-7.036c2.778,-0.4414 5.556,-0.3635 8.23,0.5452c3.765,1.3241 5.842,4.0503 6.621,7.8928c0.103,0.4933 0.389,1.1164 0.129,1.428c-0.259,0.3375 -0.934,0.0779 -1.428,0.1038c-0.181,0.026 -0.415,0 -0.649,-0.0259c0,0.0259 0,0.0259 0,0z" fill="#1669B3"/>
<path id="Vector_143" d="M51.0956,18.9803c0,-2.6222 0.3375,-5.2185 1.402,-7.6591c1.7914,-4.1021 5.0109,-6.335 9.3727,-7.036c2.6482,-0.4154 5.2705,-0.3635 7.8668,0.4154c4.1022,1.2722 6.335,4.1541 7.0879,8.2823c0.2337,1.2202 0.1818,1.2462 -1.0904,1.2462c-0.8049,0 -1.5838,0 -2.3886,0c-1.2203,0 -2.155,-0.5452 -2.6742,-1.6357c-1.0126,-2.129 -2.7781,-3.0636 -5.0628,-3.1934c-2.1031,-0.1299 -4.0762,0.2077 -5.7379,1.6356c-1.3501,1.1684 -2.077,2.6742 -2.4405,4.3878c-0.6231,2.8559 -0.5972,5.7119 0.3894,8.4899c1.2722,3.6089 4.2061,5.0369 7.7111,4.6994c3.0896,-0.2856 4.7772,-1.7915 5.5561,-4.8032c0.1038,-0.3375 0.2596,-0.3895 0.5192,-0.3895c1.5838,0 3.1416,0.026 4.7253,0c0.5193,-0.0259 0.6491,0.1558 0.5712,0.6491c-0.6491,4.6993 -3.1415,7.8928 -7.737,9.2169c-3.2454,0.9606 -6.5687,0.9607 -9.7881,-0.1038c-4.2839,-1.402 -6.6206,-4.5695 -7.711,-8.8275c-0.4154,-1.7655 -0.5712,-3.5569 -0.5712,-5.3744z" fill="#1669B3"/>
</g>
<g id="Group_3">
<g id="Group_4">
<path id="Vector_144" d="M56.0549,42.2695c-0.1817,0.1039 -0.675,0.2077 -1.2722,0.2077c-1.8953,0 -2.7261,-1.1943 -2.7261,-2.5444c0,-1.7914 1.3241,-2.7001 2.83,-2.7001c0.5712,0 1.0645,0.1038 1.2722,0.2336l-0.2597,1.0645c-0.2077,-0.1038 -0.5452,-0.1817 -0.9346,-0.1817c-0.7789,0 -1.454,0.4673 -1.454,1.5058c0,0.9087 0.5453,1.5059 1.4799,1.5059c0.3376,0 0.701,-0.0519 0.9087,-0.1558z" fill="#1669B3"/>
<path id="Vector_145" d="M58.1844,37.3108v5.0888h-1.35v-5.0888z" fill="#1669B3"/>
<path id="Vector_146" d="M60.1327,38.4532h-1.2982v-1.1424h3.9724v1.1424h-1.3241v3.9464h-1.3501z" fill="#1669B3"/>
<path id="Vector_147" d="M64.6751,42.3996v-2.0511l-1.6097,-3.0377h1.5577l0.4414,1.1424c0.1298,0.3634 0.2337,0.6231 0.3375,0.9346h0.026c0.1039,-0.3115 0.2077,-0.5971 0.3375,-0.9346l0.4154,-1.1424h1.5319l-1.6617,2.9857v2.1031z" fill="#1669B3"/>
<path id="Vector_148" d="M74.1756,42.1655c-0.3894,0.1298 -1.0904,0.2856 -1.7655,0.2856c-0.9866,0 -1.6876,-0.2597 -2.1289,-0.6751c-0.4674,-0.4413 -0.727,-1.1164 -0.727,-1.8433c0,-1.7655 1.3241,-2.6483 2.9598,-2.6483c0.675,0 1.1943,0.1298 1.4799,0.2596l-0.2856,1.0905c-0.2856,-0.1298 -0.6231,-0.2077 -1.1943,-0.2077c-0.8308,0 -1.5318,0.4414 -1.5318,1.4799c0,0.9347 0.6231,1.5058 1.4539,1.5058c0.1817,0 0.3635,-0.0259 0.4154,-0.0519v-0.8827h-0.675v-1.0645h1.9991z" fill="#1669B3"/>
<path id="Vector_149" d="M75.0597,37.3883c0.3895,-0.052 0.9606,-0.1039 1.6357,-0.1039c0.7789,0 1.3241,0.1039 1.7136,0.3895c0.3375,0.2596 0.4933,0.5971 0.4933,1.1164c0,0.6231 -0.4674,1.0904 -0.8828,1.2202v0.026c0.3375,0.1558 0.5193,0.4673 0.6491,0.9087c0.1558,0.5193 0.3115,1.2462 0.4154,1.4539h-1.402c-0.0779,-0.1557 -0.2077,-0.5452 -0.3635,-1.1683c-0.1298,-0.5971 -0.3116,-0.727 -0.7529,-0.727h-0.2077v1.8953h-1.3501v-5.0108zM76.4098,39.5172h0.3635c0.5192,0 0.8048,-0.2596 0.8048,-0.6231c0,-0.3635 -0.2596,-0.5971 -0.701,-0.5971c-0.2596,0 -0.3894,0.0259 -0.4673,0.0259z" fill="#1669B3"/>
<path id="Vector_150" d="M84.536,39.803c0,1.6357 -0.9865,2.6742 -2.5443,2.6742c-1.5838,0 -2.4406,-1.1683 -2.4406,-2.5963c0,-1.4799 0.9607,-2.6482 2.5185,-2.6482c1.6356,0 2.4664,1.2202 2.4664,2.5703zM80.9791,39.8549c0,0.9607 0.4154,1.5319 1.0645,1.5319c0.6491,0 1.0385,-0.6491 1.0385,-1.5578c0,-0.8828 -0.3894,-1.5319 -1.0385,-1.5319c-0.6491,0.026 -1.0645,0.6232 -1.0645,1.5578z" fill="#1669B3"/>
<path id="Vector_151" d="M86.639,37.3108v2.8819c0,0.7789 0.259,1.1943 0.804,1.1943c0.546,0 0.805,-0.3895 0.805,-1.1943v-2.8819h1.35v2.804c0,1.5578 -0.778,2.3626 -2.206,2.3626c-1.376,0 -2.129,-0.7529 -2.129,-2.3886v-2.778z" fill="#1669B3"/>
<path id="Vector_152" d="M90.586,37.3883c0.363,-0.052 0.909,-0.1039 1.661,-0.1039c0.727,0 1.247,0.1298 1.61,0.4154c0.338,0.2597 0.571,0.701 0.571,1.2203c0,0.5193 -0.181,0.9606 -0.493,1.2462c-0.415,0.3635 -1.012,0.5193 -1.688,0.5193c-0.129,0 -0.259,0 -0.337,-0.026v1.7136h-1.35v-4.9849zM91.91,39.6211c0.078,0.026 0.156,0.026 0.312,0.026c0.519,0 0.856,-0.2856 0.856,-0.701c0,-0.3895 -0.259,-0.6232 -0.779,-0.6232c-0.207,0 -0.337,0.026 -0.415,0.026v1.2722z" fill="#1669B3"/>
<path id="Vector_153" d="M100.477,42.2695c-0.182,0.1039 -0.675,0.2077 -1.273,0.2077c-1.895,0 -2.726,-1.1943 -2.726,-2.5444c0,-1.7914 1.324,-2.7001 2.83,-2.7001c0.572,0 1.065,0.1038 1.273,0.2336l-0.26,1.0645c-0.208,-0.1038 -0.545,-0.1817 -0.935,-0.1817c-0.779,0 -1.454,0.4673 -1.454,1.5058c0,0.9087 0.546,1.5059 1.48,1.5059c0.338,0 0.701,-0.0519 0.909,-0.1558z" fill="#1669B3"/>
<path id="Vector_154" d="M106.007,39.803c0,1.6357 -0.987,2.6742 -2.545,2.6742c-1.583,0 -2.44,-1.1683 -2.44,-2.5963c0,-1.4799 0.96,-2.6482 2.518,-2.6482c1.636,0 2.467,1.2202 2.467,2.5703zM102.476,39.8549c0,0.9607 0.415,1.5319 1.064,1.5319c0.649,0 1.039,-0.6491 1.039,-1.5578c0,-0.8828 -0.39,-1.5319 -1.039,-1.5319c-0.649,0.026 -1.064,0.6232 -1.064,1.5578z" fill="#1669B3"/>
<path id="Vector_155" d="M111.073,40.5821c-0.026,-0.5711 -0.026,-1.2462 -0.026,-2.051h-0.026c-0.156,0.675 -0.364,1.4279 -0.545,1.9991l-0.494,1.7655h-1.064l-0.416,-1.7655c-0.13,-0.5452 -0.285,-1.2981 -0.415,-1.9991h-0.026c-0.026,0.7269 -0.052,1.4799 -0.078,2.051l-0.078,1.8175h-1.246l0.311,-5.0888h1.818l0.337,1.376c0.13,0.5712 0.286,1.2463 0.39,1.8694h0.026c0.13,-0.6231 0.311,-1.3241 0.467,-1.8694l0.39,-1.3501h1.791l0.26,5.0888h-1.324z" fill="#1669B3"/>
<path id="Vector_156" d="M113.33,37.3883c0.363,-0.052 0.909,-0.1039 1.662,-0.1039c0.727,0 1.246,0.1298 1.609,0.4154c0.338,0.2597 0.572,0.701 0.572,1.2203c0,0.5193 -0.182,0.9606 -0.494,1.2462c-0.415,0.3635 -1.012,0.5193 -1.687,0.5193c-0.13,0 -0.26,0 -0.338,-0.026v1.7136h-1.35v-4.9849zM114.68,39.6211c0.078,0.026 0.156,0.026 0.312,0.026c0.519,0 0.856,-0.2856 0.856,-0.701c0,-0.3895 -0.259,-0.6232 -0.778,-0.6232c-0.208,0 -0.338,0.026 -0.416,0.026v1.2722z" fill="#1669B3"/>
<path id="Vector_157" d="M119.222,41.2312l-0.285,1.1684h-1.402l1.48,-5.0888h1.817l1.506,5.0888h-1.48l-0.311,-1.1684zM120.339,40.2187l-0.234,-0.9088c-0.078,-0.2856 -0.182,-0.701 -0.259,-1.0125h-0.026c-0.078,0.3115 -0.156,0.7269 -0.234,1.0125l-0.208,0.9088z" fill="#1669B3"/>
<path id="Vector_158" d="M123.012,42.3996v-5.0888h1.61l0.804,1.5578c0.286,0.4933 0.572,1.1943 0.805,1.7914h0.026c-0.078,-0.675 -0.104,-1.376 -0.104,-2.1289v-1.1944h1.247v5.0888h-1.428l-0.857,-1.6876c-0.286,-0.5452 -0.623,-1.2202 -0.857,-1.8434h-0.026c0.026,0.6751 0.052,1.454 0.052,2.2848v1.2462h-1.272z" fill="#1669B3"/>
<path id="Vector_159" d="M129.556,42.3996v-2.0511l-1.61,-3.0377h1.558l0.441,1.1424c0.13,0.3634 0.234,0.6231 0.338,0.9346h0.026c0.103,-0.3115 0.207,-0.5971 0.337,-0.9346l0.415,-1.1424h1.532l-1.661,2.9857v2.1031z" fill="#1669B3"/>
</g>
</g>
</g></svg>