<svg viewBox="0 0 10.5 9" x="0" y="0" fill="none" xmlns="http://www.w3.org/2000/svg"><path id="Vector_259" d="M6.249,1.0625l4.125,3.94c0.11,0.11 0.164,0.24 0.164,0.4c0,0.16 -0.054,0.29 -0.164,0.4l-4.125,3.94c-0.281,0.22 -0.547,0.22 -0.797,0c-0.219,-0.28 -0.219,-0.55 0,-0.8l3.117,-2.98h-7.969c-0.344,-0.03 -0.531,-0.22 -0.563,-0.56c0.032,-0.34 0.219,-0.53 0.563,-0.56h7.969l-3.117,-2.98c-0.219,-0.25 -0.219,-0.51 0,-0.8c0.25,-0.21 0.516,-0.21 0.797,0z" fill="currentColor" fill-opacity="0.8" xmlns="http://www.w3.org/2000/svg"/></svg>