<svg viewBox="0 0 20 20" x="0" y="0" fill="none" xmlns="http://www.w3.org/2000/svg"><defs><clipPath id="clip13_23002_53114" xmlns="http://www.w3.org/2000/svg">
<rect width="20" height="20" fill="white" transform="translate(0.06169999999997344, 0.4202000000004773)"/>
</clipPath></defs><g id="Icon_11" clip-path="url(#clip13_23002_53114)" xmlns="http://www.w3.org/2000/svg">
<path id="Vector_22" d="M8.3947,10.4202h3.334" stroke="#1A5490" stroke-width="1.66667" stroke-linecap="round" stroke-linejoin="round"/>
<path id="Vector_23" d="M8.3947,7.0902h3.334" stroke="#1A5490" stroke-width="1.66667" stroke-linecap="round" stroke-linejoin="round"/>
<path id="Vector_24" d="M11.7287,17.9202v-2.5c0,-0.44 -0.176,-0.86 -0.489,-1.18c-0.312,-0.31 -0.736,-0.48 -1.178,-0.48c-0.442,0 -0.866,0.17 -1.179,0.48c-0.312,0.32 -0.488,0.74 -0.488,1.18v2.5" stroke="#1A5490" stroke-width="1.66667" stroke-linecap="round" stroke-linejoin="round"/>
<path id="Vector_25" d="M5.0637,8.7602h-1.667c-0.442,0 -0.866,0.17 -1.178,0.48c-0.313,0.32 -0.489,0.74 -0.489,1.18v5.84c0,0.44 0.176,0.86 0.489,1.18c0.312,0.31 0.736,0.48 1.178,0.48h13.335c0.442,0 0.866,-0.17 1.178,-0.48c0.313,-0.32 0.488,-0.74 0.488,-1.18v-8.34c0,-0.44 -0.175,-0.86 -0.488,-1.18c-0.312,-0.31 -0.736,-0.48 -1.178,-0.48h-1.667" stroke="#1A5490" stroke-width="1.66667" stroke-linecap="round" stroke-linejoin="round"/>
<path id="Vector_26" d="M5.0627,17.9202v-13.33c0,-0.44 0.175,-0.87 0.488,-1.18c0.312,-0.31 0.736,-0.49 1.178,-0.49h6.668c0.442,0 0.866,0.18 1.178,0.49c0.313,0.31 0.489,0.74 0.489,1.18v13.33" stroke="#1A5490" stroke-width="1.66667" stroke-linecap="round" stroke-linejoin="round"/>
</g></svg>