<svg viewBox="0 0 28 28" x="0" y="0" fill="none" xmlns="http://www.w3.org/2000/svg"><g id="Icon_15" xmlns="http://www.w3.org/2000/svg">
<path id="Vector_42" d="M14.0146,12.1723h0.012" stroke="#1A5490" stroke-width="2.33333" stroke-linecap="round" stroke-linejoin="round"/>
<path id="Vector_43" d="M14.0146,16.8323h0.012" stroke="#1A5490" stroke-width="2.33333" stroke-linecap="round" stroke-linejoin="round"/>
<path id="Vector_44" d="M14.0146,7.5023h0.012" stroke="#1A5490" stroke-width="2.33333" stroke-linecap="round" stroke-linejoin="round"/>
<path id="Vector_45" d="M18.6826,12.1723h0.012" stroke="#1A5490" stroke-width="2.33333" stroke-linecap="round" stroke-linejoin="round"/>
<path id="Vector_46" d="M18.6826,16.8323h0.012" stroke="#1A5490" stroke-width="2.33333" stroke-linecap="round" stroke-linejoin="round"/>
<path id="Vector_47" d="M18.6826,7.5023h0.012" stroke="#1A5490" stroke-width="2.33333" stroke-linecap="round" stroke-linejoin="round"/>
<path id="Vector_48" d="M9.3466,12.1723h0.011" stroke="#1A5490" stroke-width="2.33333" stroke-linecap="round" stroke-linejoin="round"/>
<path id="Vector_49" d="M9.3466,16.8323h0.011" stroke="#1A5490" stroke-width="2.33333" stroke-linecap="round" stroke-linejoin="round"/>
<path id="Vector_50" d="M9.3466,7.5023h0.011" stroke="#1A5490" stroke-width="2.33333" stroke-linecap="round" stroke-linejoin="round"/>
<path id="Vector_51" d="M10.5146,26.1723v-3.5c0,-0.31 0.123,-0.61 0.341,-0.83c0.219,-0.22 0.516,-0.34 0.826,-0.34h4.667c0.309,0 0.606,0.12 0.825,0.34c0.218,0.22 0.341,0.52 0.341,0.83v3.5" stroke="#1A5490" stroke-width="2.33333" stroke-linecap="round" stroke-linejoin="round"/>
<path id="Vector_52" d="M21.0166,2.8323h-14.001c-1.289,0 -2.334,1.05 -2.334,2.34v18.66c0,1.29 1.045,2.34 2.334,2.34h14.001c1.289,0 2.333,-1.05 2.333,-2.34v-18.66c0,-1.29 -1.044,-2.34 -2.333,-2.34z" stroke="#1A5490" stroke-width="2.33333" stroke-linecap="round" stroke-linejoin="round"/>
</g></svg>