<svg viewBox="0 0 20 20" x="0" y="0" fill="none" xmlns="http://www.w3.org/2000/svg"><g id="Icon_14" xmlns="http://www.w3.org/2000/svg">
<path id="Vector_43" d="M8.334,10.0004h3.333" stroke="#FE760B" stroke-width="1.66667" stroke-linecap="round" stroke-linejoin="round"/>
<path id="Vector_44" d="M8.334,6.6664h3.333" stroke="#FE760B" stroke-width="1.66667" stroke-linecap="round" stroke-linejoin="round"/>
<path id="Vector_45" d="M11.667,17.5004v-2.5c0,-0.442 -0.175,-0.866 -0.488,-1.179c-0.312,-0.312 -0.736,-0.488 -1.178,-0.488c-0.442,0 -0.866,0.176 -1.179,0.488c-0.312,0.313 -0.488,0.737 -0.488,1.179v2.5" stroke="#FE760B" stroke-width="1.66667" stroke-linecap="round" stroke-linejoin="round"/>
<path id="Vector_46" d="M4.999,8.3334h-1.666c-0.442,0 -0.866,0.176 -1.179,0.488c-0.312,0.313 -0.488,0.737 -0.488,1.179v5.833c0,0.442 0.176,0.866 0.488,1.179c0.313,0.312 0.737,0.488 1.179,0.488h13.333c0.442,0 0.866,-0.176 1.179,-0.488c0.312,-0.313 0.488,-0.737 0.488,-1.179v-8.333c0,-0.442 -0.176,-0.866 -0.488,-1.179c-0.313,-0.312 -0.737,-0.488 -1.179,-0.488h-1.667" stroke="#FE760B" stroke-width="1.66667" stroke-linecap="round" stroke-linejoin="round"/>
<path id="Vector_47" d="M5,17.5004v-13.334c0,-0.442 0.176,-0.866 0.488,-1.178c0.313,-0.313 0.737,-0.488 1.179,-0.488h6.666c0.442,0 0.866,0.175 1.179,0.488c0.312,0.312 0.488,0.736 0.488,1.178v13.334" stroke="#FE760B" stroke-width="1.66667" stroke-linecap="round" stroke-linejoin="round"/>
</g></svg>