<svg viewBox="0 0 20 20" x="0" y="0" fill="none" xmlns="http://www.w3.org/2000/svg"><g id="Icon" xmlns="http://www.w3.org/2000/svg">
<path id="Vector" d="M8.344,10.097h3.334" stroke="#FE760B" stroke-width="1.66667" stroke-linecap="round" stroke-linejoin="round"/>
<path id="Vector_2" d="M8.344,6.763h3.334" stroke="#FE760B" stroke-width="1.66667" stroke-linecap="round" stroke-linejoin="round"/>
<path id="Vector_3" d="M11.678,17.598v-2.501c0,-0.442 -0.176,-0.866 -0.488,-1.178c-0.313,-0.313 -0.737,-0.488 -1.179,-0.488c-0.442,0 -0.866,0.175 -1.179,0.488c-0.312,0.312 -0.488,0.736 -0.488,1.178v2.501" stroke="#FE760B" stroke-width="1.66667" stroke-linecap="round" stroke-linejoin="round"/>
<path id="Vector_4" d="M5.013,8.43h-1.667c-0.442,0 -0.866,0.176 -1.178,0.488c-0.313,0.313 -0.489,0.737 -0.489,1.179v5.834c0,0.442 0.176,0.866 0.489,1.179c0.312,0.312 0.736,0.488 1.178,0.488h13.335c0.442,0 0.866,-0.176 1.179,-0.488c0.312,-0.313 0.488,-0.737 0.488,-1.179v-8.334c0,-0.442 -0.176,-0.866 -0.488,-1.179c-0.313,-0.313 -0.737,-0.488 -1.179,-0.488h-1.667" stroke="#FE760B" stroke-width="1.66667" stroke-linecap="round" stroke-linejoin="round"/>
<path id="Vector_5" d="M5.012,17.598v-13.335c0,-0.442 0.175,-0.866 0.488,-1.179c0.313,-0.312 0.737,-0.488 1.179,-0.488h6.667c0.442,0 0.866,0.176 1.179,0.488c0.312,0.313 0.488,0.737 0.488,1.179v13.335" stroke="#FE760B" stroke-width="1.66667" stroke-linecap="round" stroke-linejoin="round"/>
</g></svg>