<svg viewBox="0 0 24 24" x="0" y="0" fill="none" xmlns="http://www.w3.org/2000/svg"><g id="Icon_49" xmlns="http://www.w3.org/2000/svg">
<path id="Vector_127" d="M12.0186,10.823h0.01" stroke="#1A5490" stroke-width="2" stroke-linecap="round" stroke-linejoin="round"/>
<path id="Vector_128" d="M12.0186,14.823h0.01" stroke="#1A5490" stroke-width="2" stroke-linecap="round" stroke-linejoin="round"/>
<path id="Vector_129" d="M12.0186,6.823h0.01" stroke="#1A5490" stroke-width="2" stroke-linecap="round" stroke-linejoin="round"/>
<path id="Vector_130" d="M16.0186,10.823h0.01" stroke="#1A5490" stroke-width="2" stroke-linecap="round" stroke-linejoin="round"/>
<path id="Vector_131" d="M16.0186,14.823h0.01" stroke="#1A5490" stroke-width="2" stroke-linecap="round" stroke-linejoin="round"/>
<path id="Vector_132" d="M16.0186,6.823h0.01" stroke="#1A5490" stroke-width="2" stroke-linecap="round" stroke-linejoin="round"/>
<path id="Vector_133" d="M8.0176,10.823h0.01" stroke="#1A5490" stroke-width="2" stroke-linecap="round" stroke-linejoin="round"/>
<path id="Vector_134" d="M8.0176,14.823h0.01" stroke="#1A5490" stroke-width="2" stroke-linecap="round" stroke-linejoin="round"/>
<path id="Vector_135" d="M8.0176,6.823h0.01" stroke="#1A5490" stroke-width="2" stroke-linecap="round" stroke-linejoin="round"/>
<path id="Vector_136" d="M9.0186,22.823v-3c0,-0.26 0.105,-0.52 0.293,-0.71c0.187,-0.18 0.441,-0.29 0.707,-0.29h4c0.265,0 0.52,0.11 0.707,0.29c0.188,0.19 0.293,0.45 0.293,0.71v3" stroke="#1A5490" stroke-width="2" stroke-linecap="round" stroke-linejoin="round"/>
<path id="Vector_137" d="M18.0196,2.823h-12.002c-1.104,0 -2,0.9 -2,2v16c0,1.11 0.896,2 2,2h12.002c1.104,0 2,-0.89 2,-2v-16c0,-1.1 -0.896,-2 -2,-2z" stroke="#1A5490" stroke-width="2" stroke-linecap="round" stroke-linejoin="round"/>
</g></svg>