<svg viewBox="0 0 15 11.25" x="0" y="0" fill="none" xmlns="http://www.w3.org/2000/svg"><path id="Vector_131" d="M7.551,8.4411c-0.488,0 -0.947,-0.1562 -1.377,-0.4687l-6.124,-4.7758v6.6509c0.02,0.3907 0.157,0.7227 0.41,0.9962c0.274,0.2539 0.606,0.3907 0.997,0.4102h12.188c0.391,-0.0195 0.723,-0.1563 0.996,-0.4102c0.254,-0.2735 0.391,-0.6055 0.411,-0.9962v-6.6509l-6.124,4.7758c-0.43,0.3125 -0.889,0.4687 -1.377,0.4687zM0.519,2.3762l6.212,4.8344c0.253,0.1953 0.527,0.293 0.82,0.293c0.293,0 0.566,-0.0977 0.82,-0.293l6.212,-4.8344c0.293,-0.254 0.449,-0.5762 0.469,-0.9669c-0.02,-0.3907 -0.157,-0.7227 -0.411,-0.9962c-0.273,-0.2539 -0.605,-0.3906 -0.996,-0.4102h-12.188c-0.391,0.0196 -0.723,0.1563 -0.997,0.4102c-0.253,0.2735 -0.39,0.6055 -0.41,0.9962c0,0.3907 0.157,0.7129 0.469,0.9669z" fill="currentColor" xmlns="http://www.w3.org/2000/svg"/></svg>