<svg viewBox="0 0 15 11.25" x="0" y="0" fill="none" xmlns="http://www.w3.org/2000/svg"><path id="Vector_270" d="M7.563,8.4421c-0.488,0 -0.947,-0.1563 -1.377,-0.4688l-6.124,-4.7759v6.651c0.02,0.3907 0.157,0.7228 0.41,0.9962c0.274,0.254 0.606,0.3907 0.997,0.4102h12.188c0.391,-0.0195 0.723,-0.1562 0.997,-0.4102c0.254,-0.2734 0.39,-0.6055 0.41,-0.9962v-6.651l-6.124,4.7759c-0.43,0.3125 -0.889,0.4688 -1.377,0.4688zM0.531,2.377l6.212,4.8345c0.254,0.1953 0.527,0.293 0.82,0.293c0.293,0 0.567,-0.0977 0.82,-0.293l6.212,-4.8345c0.293,-0.254 0.449,-0.5763 0.469,-0.9669c-0.02,-0.3907 -0.156,-0.7228 -0.41,-0.9962c-0.274,-0.254 -0.606,-0.3907 -0.997,-0.4102h-12.188c-0.391,0.0195 -0.723,0.1562 -0.997,0.4102c-0.253,0.2734 -0.39,0.6055 -0.41,0.9962c0,0.3906 0.157,0.7129 0.469,0.9669z" fill="currentColor" xmlns="http://www.w3.org/2000/svg"/></svg>