<svg viewBox="0 0 20 20" x="0" y="0" fill="none" xmlns="http://www.w3.org/2000/svg"><defs><clipPath id="clip10_23024_1678" xmlns="http://www.w3.org/2000/svg">
<rect width="20" height="20" fill="white" transform="translate(-0.00039999999999906777, -0.0007000000000516593)"/>
</clipPath></defs><g id="Icon_17" clip-path="url(#clip10_23024_1678)" xmlns="http://www.w3.org/2000/svg">
<path id="Vector_53" d="M12.4996,11.6693c0.167,-0.84 0.584,-1.42 1.25,-2.09c0.834,-0.75 1.25,-1.83 1.25,-2.91c0,-1.33 -0.526,-2.6 -1.464,-3.54c-0.938,-0.94 -2.21,-1.46 -3.536,-1.46c-1.326,0 -2.597,0.52 -3.535,1.46c-0.938,0.94 -1.465,2.21 -1.465,3.54c0,0.83 0.167,1.83 1.25,2.91c0.584,0.59 1.084,1.25 1.25,2.09" stroke="#155DFC" stroke-width="1.66667" stroke-linecap="round" stroke-linejoin="round"/>
<path id="Vector_54" d="M7.4996,14.9993h5" stroke="#155DFC" stroke-width="1.66667" stroke-linecap="round" stroke-linejoin="round"/>
<path id="Vector_55" d="M8.3336,18.3293h3.334" stroke="#155DFC" stroke-width="1.66667" stroke-linecap="round" stroke-linejoin="round"/>
</g></svg>