<svg viewBox="0 0 20 20" x="0" y="0" fill="none" xmlns="http://www.w3.org/2000/svg"><defs><clipPath id="clip4_23002_54067" xmlns="http://www.w3.org/2000/svg">
<rect width="20" height="20" fill="white" transform="translate(0.011600000000001387, 0.12989999999990687)"/>
</clipPath></defs><g id="Icon_4" clip-path="url(#clip4_23002_54067)" xmlns="http://www.w3.org/2000/svg">
<path id="Vector_11" d="M12.5126,11.7999c0.167,-0.83 0.583,-1.42 1.25,-2.08c0.834,-0.75 1.25,-1.84 1.25,-2.92c0,-1.33 -0.527,-2.6 -1.464,-3.53c-0.938,-0.94 -2.21,-1.47 -3.536,-1.47c-1.326,0 -2.598,0.53 -3.536,1.47c-0.938,0.93 -1.465,2.2 -1.465,3.53c0,0.83 0.167,1.83 1.25,2.92c0.584,0.58 1.084,1.25 1.25,2.08" stroke="#155DFC" stroke-width="1.66667" stroke-linecap="round" stroke-linejoin="round"/>
<path id="Vector_12" d="M7.5116,15.1399h5.001" stroke="#155DFC" stroke-width="1.66667" stroke-linecap="round" stroke-linejoin="round"/>
<path id="Vector_13" d="M8.3446,18.4699h3.333" stroke="#155DFC" stroke-width="1.66667" stroke-linecap="round" stroke-linejoin="round"/>
</g></svg>