<svg viewBox="0 0 11.25 14.9707" x="0" y="0" fill="none" xmlns="http://www.w3.org/2000/svg"><path id="Vector_132" d="M4.994,14.6232c-0.527,-0.6446 -1.181,-1.5138 -1.963,-2.6077c-0.762,-1.0743 -1.435,-2.1877 -2.021,-3.3401c-0.586,-1.1525 -0.899,-2.1682 -0.938,-3.0472c0.039,-1.6017 0.586,-2.9299 1.641,-3.9847c1.055,-1.0547 2.383,-1.6017 3.985,-1.6407c1.601,0.039 2.929,0.586 3.984,1.6407c1.055,1.0548 1.602,2.383 1.641,3.9847c-0.039,0.879 -0.352,1.8947 -0.938,3.0472c-0.605,1.1524 -1.289,2.2658 -2.051,3.3401c-0.761,1.0939 -1.406,1.9631 -1.933,2.6077c-0.196,0.2344 -0.43,0.3516 -0.703,0.3516c-0.274,0 -0.508,-0.1172 -0.704,-0.3516zM5.698,7.5034c0.527,-0.0195 0.966,-0.2051 1.318,-0.5567c0.352,-0.3516 0.537,-0.7911 0.557,-1.3185c-0.02,-0.5273 -0.205,-0.9668 -0.557,-1.3184c-0.352,-0.3516 -0.791,-0.5372 -1.318,-0.5567c-0.528,0.0195 -0.967,0.2051 -1.319,0.5567c-0.352,0.3516 -0.537,0.7911 -0.557,1.3184c0.02,0.5274 0.205,0.9669 0.557,1.3185c0.352,0.3516 0.791,0.5372 1.319,0.5567z" fill="currentColor" xmlns="http://www.w3.org/2000/svg"/></svg>