<svg viewBox="0 0 24 24" x="0" y="0" fill="none" xmlns="http://www.w3.org/2000/svg"><g id="Icon_10" xmlns="http://www.w3.org/2000/svg">
<path id="Vector_20" d="M20.0068,10.4102c0,4.99 -5.5394,10.19 -7.3996,11.8c-0.1733,0.13 -0.3842,0.2 -0.601,0.2c-0.2169,0 -0.4278,-0.07 -0.6011,-0.2c-1.8602,-1.61 -7.3996,-6.81 -7.3996,-11.8c0,-2.12 0.8429,-4.16 2.3433,-5.66c1.5004,-1.5 3.5354,-2.34 5.6574,-2.34c2.1219,0 4.1569,0.84 5.6573,2.34c1.5004,1.5 2.3433,3.54 2.3433,5.66z" stroke="#FE760B" stroke-width="2" stroke-linecap="round" stroke-linejoin="round"/>
<path id="Vector_21" d="M12.0062,13.4102c1.657,0 3.0002,-1.35 3.0002,-3c0,-1.66 -1.3432,-3 -3.0002,-3c-1.657,0 -3.0003,1.34 -3.0003,3c0,1.65 1.3433,3 3.0003,3z" stroke="#FE760B" stroke-width="2" stroke-linecap="round" stroke-linejoin="round"/>
</g></svg>