<svg viewBox="0 0 20 20" x="0" y="0" fill="none" xmlns="http://www.w3.org/2000/svg"><defs><clipPath id="clip2_23002_54067" xmlns="http://www.w3.org/2000/svg">
<rect width="20" height="20" fill="white" transform="translate(0.0402000000000271, 0.09600000000000364)"/>
</clipPath></defs><g id="Icon_2" clip-path="url(#clip2_23002_54067)" xmlns="http://www.w3.org/2000/svg">
<path id="Vector_6" d="M16.7082,8.43c0,4.161 -4.617,8.495 -6.167,9.833c-0.144,0.109 -0.32,0.168 -0.501,0.168c-0.18,0 -0.356,-0.059 -0.501,-0.168c-1.55,-1.338 -6.166,-5.672 -6.166,-9.833c0,-1.769 0.702,-3.464 1.953,-4.715c1.25,-1.25 2.946,-1.953 4.714,-1.953c1.768,0 3.464,0.703 4.715,1.953c1.25,1.251 1.953,2.946 1.953,4.715z" stroke="#FE760B" stroke-width="1.66667" stroke-linecap="round" stroke-linejoin="round"/>
<path id="Vector_7" d="M10.0422,10.93c1.38,0 2.5,-1.119 2.5,-2.5c0,-1.381 -1.12,-2.5 -2.5,-2.5c-1.381,0 -2.501,1.119 -2.501,2.5c0,1.381 1.12,2.5 2.501,2.5z" stroke="#FE760B" stroke-width="1.66667" stroke-linecap="round" stroke-linejoin="round"/>
</g></svg>