<svg viewBox="0 0 20 20" x="0" y="0" fill="none" xmlns="http://www.w3.org/2000/svg"><defs><clipPath id="clip8_23024_1678" xmlns="http://www.w3.org/2000/svg">
<rect width="20" height="20" fill="white" transform="translate(0.0002000000000066393, 0.0004000000000132786)"/>
</clipPath></defs><g id="Icon_15" clip-path="url(#clip8_23024_1678)" xmlns="http://www.w3.org/2000/svg">
<path id="Vector_48" d="M16.6672,8.3334c0,4.161 -4.616,8.494 -6.166,9.832c-0.144,0.109 -0.32,0.168 -0.501,0.168c-0.18,0 -0.356,-0.059 -0.5,-0.168c-1.55,-1.338 -6.166,-5.671 -6.166,-9.832c0,-1.768 0.702,-3.464 1.952,-4.714c1.251,-1.251 2.946,-1.953 4.714,-1.953c1.769,0 3.464,0.702 4.714,1.953c1.251,1.25 1.953,2.946 1.953,4.714z" stroke="#FE760B" stroke-width="1.66667" stroke-linecap="round" stroke-linejoin="round"/>
<path id="Vector_49" d="M10.0002,10.8334c1.38,0 2.5,-1.119 2.5,-2.5c0,-1.381 -1.12,-2.5 -2.5,-2.5c-1.381,0 -2.5,1.119 -2.5,2.5c0,1.381 1.119,2.5 2.5,2.5z" stroke="#FE760B" stroke-width="1.66667" stroke-linecap="round" stroke-linejoin="round"/>
</g></svg>