<svg viewBox="0 0 28 28" x="0" y="0" fill="none" xmlns="http://www.w3.org/2000/svg"><g id="Icon_2" xmlns="http://www.w3.org/2000/svg">
<path id="Vector_4" d="M18.9864,9.1523l-2.105,6.32c-0.114,0.34 -0.307,0.65 -0.564,0.91c-0.256,0.26 -0.568,0.45 -0.912,0.56l-6.313,2.11l2.105,-6.31c0.114,-0.35 0.307,-0.66 0.563,-0.92c0.257,-0.25 0.569,-0.45 0.913,-0.56z" stroke="#FE760B" stroke-width="2.33333" stroke-linecap="round" stroke-linejoin="round"/>
<path id="Vector_5" d="M14.0364,25.7723c6.444,0 11.668,-5.22 11.668,-11.67c0,-6.44 -5.224,-11.67 -11.668,-11.67c-6.444,0 -11.667,5.23 -11.667,11.67c0,6.45 5.223,11.67 11.667,11.67z" stroke="#FE760B" stroke-width="2.33333" stroke-linecap="round" stroke-linejoin="round"/>
</g></svg>