<svg viewBox="0 0 14.9817 14.9887" x="0" y="0" fill="none" xmlns="http://www.w3.org/2000/svg"><path id="Vector_130" d="M15.003,11.3303l-0.674,2.9593c-0.137,0.4492 -0.44,0.6836 -0.908,0.7032c-2.481,-0.0196 -4.727,-0.6349 -6.739,-1.8459c-2.012,-1.1915 -3.614,-2.7932 -4.805,-4.8051c-1.211,-2.0119 -1.827,-4.2582 -1.846,-6.7389c0.019,-0.4688 0.254,-0.7715 0.703,-0.9082l2.959,-0.6739c0.469,-0.0782 0.821,0.0976 1.055,0.5274l1.348,3.1643c0.156,0.4297 0.068,0.7911 -0.264,1.0841l-1.553,1.2598c0.489,1.0158 1.133,1.924 1.934,2.7249c0.801,0.8008 1.709,1.4552 2.725,1.963l1.289,-1.5821c0.293,-0.3321 0.654,-0.42 1.084,-0.2637l3.164,1.3478c0.411,0.2539 0.586,0.6152 0.528,1.084z" fill="currentColor" xmlns="http://www.w3.org/2000/svg"/></svg>