<svg viewBox="0 0 18 22.0034" x="0" y="0" fill="none" xmlns="http://www.w3.org/2000/svg"><path id="Vector_8" d="M17.0544,12.3428c0,5 -3.5,7.5 -7.66,8.95c-0.218,0.07 -0.455,0.07 -0.67,-0.01c-4.171,-1.44 -7.671,-3.94 -7.671,-8.94v-7c0,-0.27 0.105,-0.52 0.293,-0.71c0.187,-0.19 0.442,-0.29 0.707,-0.29c2,0 4.5,-1.2 6.241,-2.72c0.211,-0.18 0.481,-0.28 0.76,-0.28c0.278,0 0.548,0.1 0.76,0.28c1.75,1.53 4.24,2.72 6.24,2.72c0.265,0 0.52,0.1 0.707,0.29c0.188,0.19 0.293,0.44 0.293,0.71z" stroke="#FE760B" stroke-width="2" stroke-linecap="round" stroke-linejoin="round" xmlns="http://www.w3.org/2000/svg"/></svg>