<svg viewBox="0 0 28 28" x="0" y="0" fill="none" xmlns="http://www.w3.org/2000/svg"><g id="Icon_28" xmlns="http://www.w3.org/2000/svg">
<path id="Vector_165" d="M18.675,24.6823v-2.34c0,-1.23 -0.492,-2.42 -1.367,-3.3c-0.875,-0.87 -2.062,-1.36 -3.3,-1.36h-7.001c-1.2374,0 -2.4245,0.49 -3.2998,1.36c-0.8752,0.88 -1.3669,2.07 -1.3669,3.3v2.34" stroke="white" stroke-width="2.33333" stroke-linecap="round" stroke-linejoin="round"/>
<path id="Vector_166" d="M18.678,3.8223c1,0.26 1.887,0.85 2.519,1.67c0.633,0.81 0.976,1.82 0.976,2.85c0,1.04 -0.343,2.04 -0.976,2.86c-0.632,0.82 -1.519,1.4 -2.519,1.66" stroke="white" stroke-width="2.33333" stroke-linecap="round" stroke-linejoin="round"/>
<path id="Vector_167" d="M25.678,24.6823v-2.34c-0.001,-1.03 -0.345,-2.04 -0.978,-2.85c-0.634,-0.82 -1.521,-1.4 -2.522,-1.66" stroke="white" stroke-width="2.33333" stroke-linecap="round" stroke-linejoin="round"/>
<path id="Vector_168" d="M10.508,13.0123c2.577,0 4.667,-2.09 4.667,-4.67c0,-2.58 -2.09,-4.67 -4.667,-4.67c-2.578,0 -4.6674,2.09 -4.6674,4.67c0,2.58 2.0894,4.67 4.6674,4.67z" stroke="white" stroke-width="2.33333" stroke-linecap="round" stroke-linejoin="round"/>
</g></svg>