<svg viewBox="0 0 28 28" x="0" y="0" fill="none" xmlns="http://www.w3.org/2000/svg"><g id="Icon_3" xmlns="http://www.w3.org/2000/svg">
<path id="Vector_6" d="M18.1251,15.1423l1.768,9.95c0.019,0.12 0.003,0.24 -0.048,0.34c-0.05,0.11 -0.132,0.2 -0.235,0.26c-0.103,0.06 -0.221,0.09 -0.34,0.08c-0.118,-0.01 -0.231,-0.06 -0.323,-0.13l-4.177,-3.14c-0.201,-0.15 -0.446,-0.23 -0.698,-0.23c-0.252,0 -0.496,0.08 -0.698,0.23l-4.184,3.14c-0.092,0.07 -0.205,0.12 -0.323,0.13c-0.118,0.01 -0.236,-0.02 -0.339,-0.08c-0.103,-0.06 -0.185,-0.15 -0.236,-0.26c-0.05,-0.1 -0.067,-0.22 -0.047,-0.34l1.766,-9.95" stroke="#FE760B" stroke-width="2.33333" stroke-linecap="round" stroke-linejoin="round"/>
<path id="Vector_7" d="M14.0691,16.4423c3.867,0 7.001,-3.14 7.001,-7.01c0,-3.86 -3.134,-7 -7.001,-7c-3.866,0 -7,3.14 -7,7c0,3.87 3.134,7.01 7,7.01z" stroke="#FE760B" stroke-width="2.33333" stroke-linecap="round" stroke-linejoin="round"/>
</g></svg>