<svg viewBox="0 0 28 28" x="0" y="0" fill="none" xmlns="http://www.w3.org/2000/svg"><g id="Icon" xmlns="http://www.w3.org/2000/svg">
<path id="Vector" d="M14.0052,25.7723c6.4439,0 11.6677,-5.22 11.6677,-11.67c0,-6.44 -5.2238,-11.67 -11.6677,-11.67c-6.4439,0 -11.6677,5.23 -11.6677,11.67c0,6.45 5.2238,11.67 11.6677,11.67z" stroke="#FE760B" stroke-width="2.33333" stroke-linecap="round" stroke-linejoin="round"/>
<path id="Vector_2" d="M14.0065,21.1023c3.8663,0 7.0006,-3.13 7.0006,-7c0,-3.86 -3.1343,-7 -7.0006,-7c-3.8663,0 -7.0006,3.14 -7.0006,7c0,3.87 3.1343,7 7.0006,7z" stroke="#FE760B" stroke-width="2.33333" stroke-linecap="round" stroke-linejoin="round"/>
<path id="Vector_3" d="M14.0078,16.4423c1.2888,0 2.3335,-1.05 2.3335,-2.34c0,-1.29 -1.0447,-2.33 -2.3335,-2.33c-1.2888,0 -2.3335,1.04 -2.3335,2.33c0,1.29 1.0447,2.34 2.3335,2.34z" stroke="#FE760B" stroke-width="2.33333" stroke-linecap="round" stroke-linejoin="round"/>
</g></svg>